<?xml version="1.0" encoding="UTF-8" standalone="no"?>
<!--

 Copyright 2020, 2021, 2022 Florian Pesth

 This file is part of coleitra.

 coleitra is free software: you can redistribute it and/or modify
 it under the terms of the GNU Affero General Public License as
 published by the Free Software Foundation version 3 of the
 License.

 coleitra is distributed in the hope that it will be useful,
 but WITHOUT ANY WARRANTY; without even the implied warranty of
 MERCHANTABILITY or FITNESS FOR A PARTICULAR PURPOSE.  See the
 GNU Affero General Public License for more details.

 You should have received a copy of the GNU Affero General Public License
 along with this program.  If not, see <http://www.gnu.org/licenses/>.

-->

<svg
   xmlns:osb="http://www.openswatchbook.org/uri/2009/osb"
   xmlns:dc="http://purl.org/dc/elements/1.1/"
   xmlns:cc="http://creativecommons.org/ns#"
   xmlns:rdf="http://www.w3.org/1999/02/22-rdf-syntax-ns#"
   xmlns:svg="http://www.w3.org/2000/svg"
   xmlns="http://www.w3.org/2000/svg"
   xmlns:sodipodi="http://sodipodi.sourceforge.net/DTD/sodipodi-0.dtd"
   xmlns:inkscape="http://www.inkscape.org/namespaces/inkscape"
   width="499.68475mm"
   height="499.68475mm"
   viewBox="0 0 499.68475 499.68475"
   version="1.1"
   id="svg8"
   inkscape:version="0.92.4 (5da689c313, 2019-01-14)"
   sodipodi:docname="settings.svg">
  <defs
     id="defs2">
    <linearGradient
       id="linearGradient1102"
       osb:paint="solid">
      <stop
         style="stop-color:#000000;stop-opacity:1;"
         offset="0"
         id="stop1100" />
    </linearGradient>
    <marker
       inkscape:stockid="Arrow1Lstart"
       orient="auto"
       refY="0"
       refX="0"
       id="Arrow1Lstart"
       style="overflow:visible"
       inkscape:isstock="true">
      <path
         id="path830"
         d="M 0,0 5,-5 -12.5,0 5,5 Z"
         style="fill-rule:evenodd;stroke:#000000;stroke-width:1.00000003pt"
         transform="matrix(0.8,0,0,0.8,10,0)"
         inkscape:connector-curvature="0" />
    </marker>
  </defs>
  <sodipodi:namedview
     id="base"
     pagecolor="#ffffff"
     bordercolor="#666666"
     borderopacity="1.0"
     inkscape:pageopacity="0.0"
     inkscape:pageshadow="2"
     inkscape:zoom="0.35"
     inkscape:cx="1162.858"
     inkscape:cy="840.00041"
     inkscape:document-units="mm"
     inkscape:current-layer="layer1"
     showgrid="false"
     inkscape:window-width="3200"
     inkscape:window-height="1752"
     inkscape:window-x="0"
     inkscape:window-y="0"
     inkscape:window-maximized="1" />
  <metadata
     id="metadata5">
    <rdf:RDF>
      <cc:Work
         rdf:about="">
        <dc:format>image/svg+xml</dc:format>
        <dc:type
           rdf:resource="http://purl.org/dc/dcmitype/StillImage" />
        <dc:title></dc:title>
      </cc:Work>
    </rdf:RDF>
  </metadata>
  <g
     inkscape:label="Ebene 1"
     inkscape:groupmode="layer"
     id="layer1"
     style="display:inline"
     transform="translate(721.93475,127.0894)">
    <path
       style="fill:#00ff51;fill-opacity:0.32491294;stroke:none;stroke-width:570.57635498;stroke-linejoin:round;stroke-miterlimit:4;stroke-dasharray:none;stroke-opacity:1;paint-order:markers fill stroke"
       d="m -2234.2852,-480.33789 c -273.8342,0 -494.2871,220.45089 -494.2871,494.285156 V 913.94727 c 0,273.83423 220.4529,494.28713 494.2871,494.28713 h 900 c 273.8343,0 494.2852,-220.4529 494.2852,-494.28713 V 13.947266 c 0,-273.834266 -220.4509,-494.285156 -494.2852,-494.285156 z m 518.7149,110.81445 123.8594,21.83985 27.4238,167.64843 -2.4238,10.19727 -48.7657,133.238281 158.6856,91.615234 91.0039,-108.849609 7.6191,-7.199219 158.9004,-60.074217 80.8438,96.345701 -86.7559,146.052739 -8.4121,6.25586 -122.998,70.71874 62.6679,172.1836 139.6817,-24.88867 10.4648,-0.61524 160.3379,56.11719 v 125.76953 l -160.3379,56.11914 -10.4648,-0.61523 -139.6817,-24.88867 -62.6679,172.18359 122.998,70.71875 8.4121,6.25586 86.7559,146.05273 -80.8438,96.3457 -158.9004,-60.07421 -7.6191,-7.19922 -91.0039,-108.84961 -158.6856,91.61523 48.7657,133.23831 2.4238,10.1972 -27.4238,167.6485 -123.8594,21.8398 -83.1074,-148.1582 -1.211,-10.4121 0.2539,-141.88085 -180.4492,-31.81836 -48.2871,133.41211 -4.6992,9.3691 -128.7695,110.7989 -108.92,-62.8848 31.5703,-166.91601 5.7657,-8.75586 91.3945,-108.52344 -117.7812,-140.36328 -122.7442,71.16016 -9.623,4.1582 -169.8633,2.10547 -43.0156,-118.18555 131.4765,-107.57422 10.043,-3 139.7695,-24.38672 V 372.33203 l -139.7695,-24.38672 -10.043,-3 -131.4765,-107.57422 43.0156,-118.18554 169.8633,2.10547 9.623,4.1582 122.7442,71.16016 117.7812,-140.363286 -91.3945,-108.523438 -5.7657,-8.755859 -31.5703,-166.916017 108.92,-62.88476 128.7695,110.79882 4.6992,9.36914 48.2871,133.412114 180.4492,-31.81836 -0.2539,-141.880854 1.211,-10.41211 z m -83.1074,632.01172 a 201.45932,201.45932 0 0 0 -201.459,201.45899 201.45932,201.45932 0 0 0 201.459,201.46093 201.45932,201.45932 0 0 0 201.4589,-201.46093 201.45932,201.45932 0 0 0 -201.4589,-201.45899 z"
       transform="scale(0.26458333)"
       id="rect2576"
       inkscape:connector-curvature="0" />
  </g>
</svg>
